<?xml version="1.0" standalone="no"?>
<!DOCTYPE svg PUBLIC "-//W3C//DTD SVG 20010904//EN"
 "http://www.w3.org/TR/2001/REC-SVG-20010904/DTD/svg10.dtd">
<svg version="1.0" xmlns="http://www.w3.org/2000/svg"
 width="700.000000pt" height="700.000000pt" viewBox="0 0 700.000000 700.000000"
 preserveAspectRatio="xMidYMid meet">
<metadata>
Created by potrace 1.14, written by Peter Selinger 2001-2017
</metadata>
<g transform="translate(0.000000,700.000000) scale(0.100000,-0.100000)"
fill="#000000" stroke="none">
<path d="M5048 6516 c-35 -23 -42 -39 -133 -276 -31 -80 -60 -154 -64 -165 -5
-11 -22 -54 -37 -95 -15 -41 -31 -79 -36 -84 -4 -6 -8 -17 -8 -25 -1 -9 -9
-34 -20 -56 -35 -73 -22 -142 33 -168 17 -9 42 -13 56 -11 60 10 70 29 189
335 62 162 120 308 127 324 43 100 48 125 36 164 -13 46 -29 60 -76 71 -28 6
-41 4 -67 -14z"/>
<path d="M3163 6225 c-23 -23 -33 -42 -33 -65 0 -21 44 -110 142 -288 78 -141
147 -262 153 -268 65 -68 175 -23 175 71 0 15 -15 54 -34 88 -19 34 -48 87
-65 117 -17 30 -67 122 -112 203 -46 81 -91 153 -102 159 -11 5 -36 12 -55 14
-29 2 -41 -3 -69 -31z"/>
<path d="M6144 5584 c-16 -8 -126 -114 -246 -234 -217 -219 -218 -220 -218
-264 0 -33 6 -49 26 -70 26 -25 42 -30 94 -28 18 1 85 62 257 234 l232 233 -3
43 c-6 76 -78 119 -142 86z"/>
<path d="M4019 5336 c-2 -2 -35 -6 -74 -10 -346 -30 -714 -197 -989 -449 -35
-32 -32 -32 -189 12 -60 16 -123 32 -140 35 -18 3 -59 10 -92 16 -202 34 -495
32 -701 -5 -603 -107 -1120 -448 -1465 -965 -155 -232 -296 -577 -335 -820 -2
-14 -10 -54 -16 -90 -14 -70 -18 -545 -6 -635 43 -330 162 -656 336 -930 210
-328 534 -624 871 -794 142 -72 388 -160 521 -186 85 -17 228 -37 310 -42 124
-9 3218 -9 3335 0 317 23 659 157 925 362 75 58 227 206 288 282 61 76 167
236 209 318 43 83 97 223 128 330 52 181 58 226 61 480 3 254 -5 325 -56 514
-117 430 -411 819 -800 1057 -83 51 -212 115 -262 131 -10 3 -19 21 -24 46 -3
23 -24 93 -46 155 -176 512 -572 911 -1083 1092 -91 32 -216 64 -290 75 -23 3
-52 8 -65 11 -31 7 -344 16 -351 10z m321 -211 c19 -4 46 -9 60 -11 387 -65
741 -277 976 -584 98 -127 161 -238 221 -390 43 -110 43 -122 1 -109 -18 5
-44 11 -58 13 -140 23 -171 26 -297 26 -347 2 -664 -94 -967 -290 -53 -34 -98
-61 -100 -59 -2 2 -18 33 -36 69 -46 92 -149 247 -234 354 -182 228 -430 434
-680 565 -44 23 -83 44 -88 47 -23 15 215 175 354 238 149 67 335 119 475 131
43 4 79 8 81 10 5 5 259 -4 292 -10z m-1976 -369 c138 -11 274 -38 411 -80
130 -39 167 -55 319 -131 134 -68 128 -65 216 -124 141 -96 304 -244 411 -372
62 -73 169 -223 169 -235 0 -4 6 -15 14 -23 8 -9 37 -60 65 -114 l52 -99 -57
-61 c-299 -323 -467 -719 -491 -1157 -8 -147 15 -190 102 -190 43 0 94 44 96
82 5 128 16 259 24 288 2 8 7 31 10 50 3 19 15 68 26 108 167 601 659 1048
1264 1151 111 18 348 22 455 6 323 -47 627 -197 864 -429 109 -107 153 -160
231 -279 222 -342 307 -779 229 -1182 -17 -89 -58 -231 -81 -285 -144 -331
-302 -534 -570 -729 -145 -105 -381 -209 -555 -245 -40 -8 -86 -18 -103 -23
-41 -10 -3394 -14 -3470 -3 -115 15 -150 21 -215 36 -36 9 -76 18 -90 20 -62
12 -216 71 -338 130 -287 137 -508 315 -726 584 -124 153 -311 520 -341 669
-2 9 -8 28 -13 42 -6 14 -13 43 -16 63 -4 21 -8 41 -10 45 -9 14 -35 192 -42
281 -11 153 -6 348 11 440 2 8 6 38 9 65 14 106 57 260 121 433 26 73 85 191
141 285 158 263 344 463 594 639 274 193 641 323 970 344 52 4 96 7 97 8 4 3
139 -2 217 -8z"/>
</g>
</svg>
